<svg xmlns="http://www.w3.org/2000/svg" viewBox="0 0 1280 640" role="img" aria-labelledby="title desc">
  <title id="title">Yira cover concept: Material Symbol</title>
  <desc id="desc">Simple badge README cover using the Material Symbol icon concept.</desc>
  <rect width="1280" height="640" fill="#101418"/>
  <rect x="84" y="84" width="1112" height="472" rx="56" fill="#151b20"/>
  <g transform="translate(136 138) scale(.7)">
    <rect width="512" height="512" rx="112" fill="#101418"/>
    <circle cx="256" cy="256" r="174" fill="#f4f7f8"/>
    <circle cx="262" cy="128" r="30" fill="#101418"/>
    <path fill="#101418" d="M229 175h52c15 0 29 8 36 22l20 40h-50l-12-23h-21l-23 53h52l43 84c8 15-3 33-20 33-8 0-15-4-19-12l-34-67h-38l-33 66c-4 8-12 13-21 13-17 0-28-18-20-33l45-88 24-55c6-20 18-33 39-33z"/>
    <path fill="#101418" d="M317 182c32 0 58 26 58 58h-42c0-9-7-16-16-16h-31v-42h31z"/>
    <rect x="304" y="224" width="102" height="68" rx="14" fill="#5da8ff"/>
    <path d="M328 258h54" stroke="#101418" stroke-width="12" stroke-linecap="round"/>
    <path d="M148 386h68M310 386h70" stroke="#ffb23f" stroke-width="16" stroke-linecap="round"/>
  </g>
  <g transform="translate(560 246)">
    <text x="0" y="0" fill="#f4f7f8" font-family="Inter, Segoe UI, Arial, sans-serif" font-size="90" font-weight="760" letter-spacing="0">Yira</text>
    <text x="4" y="60" fill="#9aa7b2" font-family="Inter, Segoe UI, Arial, sans-serif" font-size="28" font-weight="600" letter-spacing="0">Move through work without losing context.</text>
    <path d="M5 108h92M120 108h42" stroke="#5da8ff" stroke-width="9" stroke-linecap="round"/>
    <path d="M184 108h42" stroke="#ffb23f" stroke-width="9" stroke-linecap="round"/>
  </g>
</svg>
