<svg xmlns="http://www.w3.org/2000/svg" viewBox="0 0 512 512" role="img" aria-labelledby="title desc">
  <title id="title">Yira icon concept: Material Symbol</title>
  <desc id="desc">Compact Material-symbol-like mark with a right-facing walker and laptop.</desc>
  <rect width="512" height="512" rx="112" fill="#101418"/>
  <circle cx="256" cy="256" r="174" fill="#f4f7f8"/>
  <circle cx="262" cy="128" r="30" fill="#101418"/>
  <path fill="#101418" d="M229 175h52c15 0 29 8 36 22l20 40h-50l-12-23h-21l-23 53h52l43 84c8 15-3 33-20 33-8 0-15-4-19-12l-34-67h-38l-33 66c-4 8-12 13-21 13-17 0-28-18-20-33l45-88 24-55c6-20 18-33 39-33z"/>
  <path fill="#101418" d="M317 182c32 0 58 26 58 58h-42c0-9-7-16-16-16h-31v-42h31z"/>
  <rect x="304" y="224" width="102" height="68" rx="14" fill="#5da8ff"/>
  <path d="M328 258h54" stroke="#101418" stroke-width="12" stroke-linecap="round"/>
  <path d="M148 386h68M310 386h70" stroke="#ffb23f" stroke-width="16" stroke-linecap="round"/>
</svg>
